<?xml version="1.0" standalone="no"?><!DOCTYPE svg PUBLIC "-//W3C//DTD SVG 1.1//EN" "http://www.w3.org/Graphics/SVG/1.1/DTD/svg11.dtd"><svg t="1775282282422" class="icon" viewBox="0 0 2001 1024" version="1.1" xmlns="http://www.w3.org/2000/svg" p-id="4854" xmlns:xlink="http://www.w3.org/1999/xlink" width="390.8203125" height="200"><path d="M1726.77894491 539.47410469c-397.0359728 77.43532825-340.75862466-152.63971358-573.49640508-163.93836216a178.11564869 178.11564869 0 0 0-137.81473357 54.76606412 219.92784705 219.92784705 0 0 0-99.52886588-55.98948488 220.3596427 220.3596427 0 0 0-440.71928541 2.01504587c0 6.11710305 0.43179565 12.16223989 0.93555751 18.13541131a164.08229456 164.08229456 0 1 0-56.70914381 317.8014965c3.67026152 0 7.19659218 0 10.8668537-0.57572729a119.31949282 119.31949282 0 0 0 184.16078553 94.56321662 119.39145902 119.39145902 0 0 0 221.36716564 41.09253946 164.72998727 164.72998727 0 0 0 193.30045662-25.26003728c4.17402337 0.64769348 8.49197837 1.07948914 12.80993413 1.36735239a132.92105129 132.92105129 0 0 0 102.76733173-39.86911869 330.46749824 330.46749824 0 0 1 179.91479597-97.65775163c260.73252325-44.11510825 474.1114716-160.55596467 402.14555292-146.45064434" fill="#FF6E74" p-id="4855"></path><path d="M644.05170018 582.79758784a227.19640465 227.19640465 0 0 1-227.05247302-226.47674574h13.7454901A213.37894835 213.37894835 0 0 0 644.26759801 569.12406316v13.74549089" fill="#FFCB2E" p-id="4856"></path><path d="M647.64999627 586.39588393h-3.5982961a230.79470075 230.79470075 0 0 1-230.86666694-230.29093966v-3.5982961H434.12711551v3.5982961a209.78065303 209.78065303 0 0 0 209.92458466 209.20492576h3.59829611zM420.38162541 359.91913818a223.59810935 223.59810935 0 0 0 220.07177869 219.28015358v-6.54889871a216.97724444 216.97724444 0 0 1-213.45091456-212.73125487zM558.91601866 807.76304957A126.08428933 126.08428933 0 0 1 656.42983789 658.50573425l2.87863719 13.45762685a112.33879924 112.33879924 0 0 0-86.86286415 132.9210513l-13.45762683 2.80667098" fill="#FFCB2E" p-id="4857"></path><path d="M556.18131388 812.00903837l-0.71965967-3.52632989a129.53865381 129.53865381 0 0 1 100.24852477-153.50330412l3.52632989-0.71965968 4.3899212 20.5102874-3.52632989 0.71965891a108.74050314 108.74050314 0 0 0-84.12815858 128.67506249l0.71965891 3.5263299zM653.6951331 662.82368925a122.34206163 122.34206163 0 0 0-91.90047802 140.62140533l6.40496705-1.36735317A115.93709456 115.93709456 0 0 1 655.06248551 669.15669012zM1043.10271887 689.66697675h-13.74549089A157.60536207 157.60536207 0 0 0 871.67990049 532.49341112v-13.74549089a171.42281837 171.42281837 0 0 1 171.42281837 170.91905652" fill="#FFCB2E" p-id="4858"></path><path d="M1046.62904875 693.26527284h-20.94208228v-3.59829609a154.00706598 154.00706598 0 0 0-154.07903141-153.57527032h-3.59829609v-20.94208227h3.59829609a174.94914825 174.94914825 0 0 1 175.09307989 174.51735259z m-13.81745631-7.19659218h6.62086413a167.82452227 167.82452227 0 0 0-164.22622619-163.65049813v6.54889792a161.20365738 161.20365738 0 0 1 157.60536206 157.10160021zM362.37709465 712.76803653v-13.7454901a156.88570238 156.88570238 0 0 0 112.19486761-46.48998359l9.78736456 9.64343293a170.63119327 170.63119327 0 0 1-121.69436815 50.37614293" fill="#FFCB2E" p-id="4859"></path><path d="M362.37709465 716.36633261h-3.59829532v-20.94208228h3.59829532a153.35937249 153.35937249 0 0 0 109.38819663-45.41049445l2.51880695-2.51880695 14.89694545 14.39318358-2.51880774 2.59077316a174.15752315 174.15752315 0 0 1-124.28514129 51.88742694z m3.59829609-13.8174563v6.5488987a166.96093097 166.96093097 0 0 0 112.98649194-46.92177923l-4.38992042-4.53385284a160.34006684 160.34006684 0 0 1-108.59657152 44.90673337zM648.08179192 583.58921294h-8.34804674l0.93555673-13.67352466a105.57400271 105.57400271 0 0 0 112.62666249-97.94561489 82.83277238 82.83277238 0 0 0-77.21943042-88.30218195l0.93555674-13.67352467a96.57826249 96.57826249 0 0 1 90.02936455 102.98322956 119.31949282 119.31949282 0 0 1-118.95966335 110.61161661" fill="#FFCB2E" p-id="4860"></path><path d="M648.08179192 587.18750904h-12.16224066l1.43931859-20.94208227h3.59829609a101.97570663 101.97570663 0 0 0 108.81246857-94.27535338 79.1625101 79.1625101 0 0 0-73.69310053-84.70388663h-3.59829609l1.43931859-20.87011607h3.59829609a100.17655858 100.17655858 0 0 1 93.55569368 106.79742347 123.13368674 123.13368674 0 0 1-122.98975433 113.99401488z m-4.53385283-7.19659217a115.79316293 115.79316293 0 0 0 119.89522011-107.30118457 92.97996717 92.97996717 0 0 0-82.9047386-98.80920619l-0.43179487 6.5488987a86.35910227 86.35910227 0 0 1 76.78763477 91.75654641 108.95640097 108.95640097 0 0 1-112.91452652 101.18408152zM934.21828407 524.93698947h-13.45762684a170.1274314 170.1274314 0 0 1 45.050665-115.1454702l7.70035326 1.94308044c-26.77132207 28.78636718-38.93356196 74.12489619-38.93356196 113.49025303" fill="#FFCB2E" p-id="4861"></path><path d="M937.81658017 528.53528557h-21.01404849v-3.59829609a173.72572749 173.72572749 0 0 1 46.05818794-117.880175l1.43931859-1.58325022 15.61660435 3.95812555-4.10205794 4.4618874c-23.46088924 25.4039689-37.99800522 68.00779315-37.99800445 111.1153777z m-13.74549087-7.19659218h6.62086489c0.71965891-40.73271 13.31369522-79.1625101 34.39970913-106.00579836a166.45716989 166.45716989 0 0 0-41.02057402 106.00579836z" fill="#FFCB2E" p-id="4862"></path><path d="M688.52663789 896.56899261a132.84908586 132.84908586 0 0 1-127.59557336-93.55569368 133.7846426 133.7846426 0 0 1-187.1113889-101.32801393 178.40351195 178.40351195 0 0 1 2.15897749-356.80702388 176.38846607 176.38846607 0 0 1 41.38040348 4.96564848 234.7528263 234.7528263 0 0 1 469.14582312-11.51454717 234.89675792 234.89675792 0 0 1 84.63192044 47.06571086 191.933105 191.933105 0 0 1 138.82225728-49.29665457c98.37741053 4.60581903 148.60962184 47.28160869 197.25858215 88.51807978 69.8069412 59.15598532 141.91679152 120.32701575 372.63952683 75.34831696 9.78736456-1.94307968 20.72618445-3.31043207 27.56294642 4.67778522a15.9764338 15.9764338 0 0 1 2.80667098 15.97643379c-10.29112642 28.78636718-214.60236911 118.02410662-427.33362477 154.43886086a315.78645063 315.78645063 0 0 0-171.85461324 93.55569446 147.81799673 147.81799673 0 0 1-113.85008325 44.18707369l-7.19659141-0.57572729a179.12317162 179.12317162 0 0 1-193.08455955 28.78636718 134.43233608 134.43233608 0 0 1-108.38067371 55.55768924z m-107.08528672-139.61388162l3.38239825 21.94960521a104.20665033 104.20665033 0 0 0 103.70288847 88.87790923A105.50203652 105.50203652 0 0 0 779.56352463 815.24750502l7.19659217-12.2342061 12.37813772 6.83676195a150.33680368 150.33680368 0 0 0 176.38846684-23.02909358l5.10958011-4.89368305 7.1965914 1.07948913c3.67026152 0.57572728 7.19659218 0.93555674 11.44258175 1.22342077a118.74376554 118.74376554 0 0 0 91.61261402-35.62312989 344.35692075 344.35692075 0 0 1 187.5431838-101.831775 1465.65789797 1465.65789797 0 0 0 357.59864975-110.03588935c-205.96645913 29.43406065-280.66708259-33.82398185-347.01965932-90.10132998-46.99374467-39.86911869-91.39671697-77.50729445-179.91479674-81.68131783a162.78690759 162.78690759 0 0 0-126.66001661 50.37614293l-10.36309262 10.57899045-10.50702424-10.29112642a205.89449293 205.89449293 0 0 0-92.9799664-52.31922261l-10.72292207-2.73470477v-11.08275153a206.03842455 206.03842455 0 0 0-412.07684987 1.79914805c0 5.32547794 0 10.65095586 0.86359131 16.98395673l1.87111347 22.4533663-21.1579801-7.98821729a149.68911098 149.68911098 0 1 0-51.74349534 289.95068608c2.87863642 0 5.61334197 0 8.42001296-0.43179566l16.12036543-1.15145456 0.64769347 14.75301381a104.92630924 104.92630924 0 0 0 161.99528248 83.12063564z" fill="#EA3038" p-id="4863"></path></svg>